<svg width="65" height="65" viewBox="0 0 65 65" fill="none" xmlns="http://www.w3.org/2000/svg">
<path d="M10.7386 22.7441H23.895V25.5737H13.8466V30.3977H22.7624V33.2273H13.8466V40.4233H10.7386V22.7441Z" fill="#1D1D1B"/>
<path d="M25.2946 22.7441H28.3987V37.5937H36.4069V40.4233H25.2946V22.7441Z" fill="#1D1D1B"/>
<path d="M45.1244 22.6182H48.0035L55.7829 40.4231H52.4996L50.7072 36.1559H42.3482L40.5292 40.4231H37.345L45.1244 22.6182ZM49.5708 33.4026L46.5201 26.3286L43.4884 33.4026H49.5708Z" fill="#1D1D1B"/>
<path d="M16.2262 45.7161H10.6204V42.8369H24.9666V45.7161H19.357V60.5199H16.2262V45.7161Z" fill="#1D1D1B"/>
<path d="M26.0153 42.8369H39.1259V45.6169H29.1232V50.2121H37.9894V52.9921H29.1232V57.7399H39.2517V60.5199H26.0153V42.8369Z" fill="#1D1D1B"/>
<path d="M40.8647 42.8369H47.4544C53.0144 42.8369 56.8507 46.6504 56.8507 51.6078V51.6574C56.8507 56.634 53.0144 60.5008 47.4544 60.5008H40.8647V42.8369ZM47.4544 57.6903C51.1686 57.6903 53.594 55.1887 53.594 51.7261V51.6765C53.594 48.2177 51.1686 45.6665 47.4544 45.6665H43.9689V57.6903H47.4544Z" fill="#1D1D1B"/>
<path d="M62.8721 25.5926L32.5019 10.3045L2.1279 25.5926L0 21.3597L32.5019 5L65 21.3597L62.8721 25.5926Z" fill="#1D1D1B"/>
<path d="M44.9681 12.0856V7.02515H50.4175V14.6559" fill="#1D1D1B"/>
</svg>
