<svg width="30" height="30" viewBox="0 0 30 30" fill="none" xmlns="http://www.w3.org/2000/svg">
<g clip-path="url(#clip0_16_605)">
<path d="M6.71666 20.0475C5.40066 21.3656 4.77841 23.1975 5.0625 24.9175C6.7825 25.1993 8.61346 24.576 9.93041 23.2604C11.2464 21.9423 11.8687 20.1104 11.5846 18.3904C9.86458 18.1086 8.03362 18.7319 6.71666 20.0475Z" fill="#FCEA2B"/>
<path d="M13.3221 19.0996C13.2421 19.5021 13.0447 19.8719 12.7548 20.1624C12.6135 20.3029 12.4528 20.4224 12.2776 20.5172C13.1787 21.7554 13.8434 23.1359 14.2339 24.58C14.5294 24.321 14.8133 24.0472 15.0846 23.7598C15.882 22.9122 16.5634 21.9524 17.1061 20.9129C17.6273 19.9045 18.0124 18.8328 18.2495 17.7314C16.696 18.5458 15.0113 19.0135 13.3221 19.0996Z" fill="#61B2E4"/>
<path d="M6.21792 14.8954C5.93042 15.1662 5.65659 15.4497 5.39746 15.7447C6.84254 16.1327 8.22438 16.7951 9.46429 17.694C9.55863 17.5215 9.67696 17.3632 9.81575 17.224C10.1053 16.935 10.4737 16.7379 10.8748 16.6574C10.9625 14.9696 11.4316 13.2866 12.2469 11.7349C12.2477 11.7333 12.2484 11.7318 12.2492 11.7302C11.1471 11.9672 10.0747 12.3522 9.06567 12.8733C8.02567 13.4162 7.06571 14.0979 6.21792 14.8954Z" fill="#92D3F5"/>
<path d="M14.5087 8.6446C12.329 10.8324 11.0227 13.7127 10.8742 16.6584C11.5566 16.5201 12.2628 16.7326 12.7555 17.2244C13.2497 17.7189 13.462 18.4286 13.3205 19.1132C16.2686 18.9628 19.1504 17.6539 21.338 15.4716C24.1345 12.6704 25.4564 8.77702 24.852 5.12202C24.1304 5.00423 23.3919 4.96039 22.6472 4.99114C19.658 5.11306 16.7264 6.42923 14.5087 8.6446ZM18.7792 8.42414C19.5463 7.65693 20.7904 7.65673 21.5578 8.42364C21.5579 8.42381 21.5581 8.42398 21.5583 8.42414C22.3257 9.1911 22.3259 10.4348 21.5588 11.2019C21.5586 11.2021 21.5584 11.2023 21.5583 11.2024C20.7908 11.9693 19.5469 11.969 18.7797 11.2019C18.0124 10.4349 18.0121 9.19135 18.7792 8.42414Z" fill="#EA5A47"/>
<path d="M11.0575 21.6821C10.6927 22.0917 10.2703 22.4515 9.80451 22.7494C8.35005 23.6756 6.58601 23.9305 5.03743 23.4382C4.97513 23.9367 4.98355 24.4347 5.06243 24.9172C6.78243 25.199 8.61338 24.5757 9.93034 23.2602C10.3907 22.7964 10.7723 22.262 11.0575 21.6821Z" fill="#F1B31C"/>
<path d="M10.9183 16.1196C10.9046 16.2979 10.895 16.4761 10.8898 16.6541C11.5678 16.5225 12.2669 16.7361 12.7554 17.2242C13.2495 17.7187 13.4619 18.4285 13.3204 19.1131C16.2683 18.9623 19.1498 17.6531 21.337 15.4709C21.9592 14.8431 22.5148 14.1534 22.9931 13.4151C22.4318 13.9262 21.8243 14.3878 21.1794 14.7932C18.0305 16.7561 14.2238 17.2481 10.9183 16.1196Z" fill="#D22F27"/>
<path d="M10.0162 20.2296C10.3789 20.0474 10.7332 19.8471 11.0788 19.6304C12.0968 18.9919 13.0278 18.2118 13.841 17.3157L13.8422 17.3146C14.6257 16.4433 15.2899 15.4734 15.8142 14.4345C15.8397 14.3843 15.8545 14.3295 15.8579 14.2733C14.4418 13.9595 9.67204 18.5446 10.0162 20.2296Z" fill="#61B2E4"/>
<path d="M20.1687 12.2875C18.8037 12.2875 17.6933 11.1774 17.6933 9.8128C17.6933 8.44818 18.8037 7.33813 20.1687 7.33813C21.5338 7.33813 22.6442 8.44818 22.6442 9.8128C22.6442 11.1774 21.5338 12.2875 20.1687 12.2875ZM20.1687 8.16301C19.2588 8.16301 18.5185 8.90288 18.5185 9.8128C18.5185 10.7227 19.2588 11.4626 20.1687 11.4626C21.0787 11.4626 21.819 10.7227 21.819 9.8128C21.819 8.90288 21.0787 8.16301 20.1687 8.16301Z" fill="black"/>
<path d="M8.60542 18.7762C7.90625 19.0714 7.26283 19.5044 6.71662 20.0474C5.40075 21.3654 4.77842 23.1972 5.06233 24.917C6.78233 25.1987 8.61321 24.5755 9.93025 23.26C10.4737 22.714 10.9072 22.0707 11.2026 21.3717" stroke="black" stroke-miterlimit="10" stroke-linecap="round" stroke-linejoin="round"/>
<path d="M6.21792 14.8954C5.93042 15.1662 5.65659 15.4497 5.39746 15.7447C6.84254 16.1327 8.22438 16.7951 9.46429 17.694C9.55863 17.5215 9.67696 17.3632 9.81575 17.224C10.1053 16.935 10.4737 16.7379 10.8748 16.6574C10.9625 14.9696 11.4316 13.2866 12.2469 11.7349C12.2477 11.7333 12.2484 11.7318 12.2492 11.7302C11.1471 11.9672 10.0747 12.3522 9.06567 12.8733C8.02567 13.4162 7.06571 14.0979 6.21792 14.8954Z" stroke="black" stroke-miterlimit="10" stroke-linecap="round" stroke-linejoin="round"/>
<path d="M13.3221 19.0996C13.2421 19.5021 13.0447 19.8719 12.7548 20.1624C12.6135 20.3029 12.4528 20.4224 12.2776 20.5172C13.1787 21.7554 13.8434 23.1359 14.2339 24.58C14.5294 24.321 14.8133 24.0472 15.0846 23.7598C15.882 22.9122 16.5634 21.9524 17.1061 20.9129C17.6273 19.9045 18.0124 18.8328 18.2495 17.7314C16.696 18.5458 15.0113 19.0135 13.3221 19.0996Z" stroke="black" stroke-miterlimit="10" stroke-linecap="round" stroke-linejoin="round"/>
<path d="M13.2625 18.0604C13.3748 18.4297 13.3669 18.7654 13.3196 19.1123C16.2679 18.9618 19.1501 17.6527 21.3376 15.4701C24.1336 12.6695 25.4557 8.77721 24.8522 5.12262C21.1975 4.52408 17.3072 5.84846 14.5093 8.64379C12.3292 10.8317 11.0226 13.7121 10.8742 16.658C11.2664 16.5785 11.6652 16.6187 12.0281 16.7574" stroke="black" stroke-miterlimit="10" stroke-linecap="round" stroke-linejoin="round"/>
<path d="M15.4467 14.2484C14.4402 14.756 13.4997 15.3994 12.6551 16.1585C11.7864 16.9465 11.0301 17.8484 10.4116 18.834C10.2016 19.1686 10.0081 19.512 9.8317 19.8629" stroke="black" stroke-miterlimit="10" stroke-linecap="round" stroke-linejoin="round"/>
</g>
<defs>
<clipPath id="clip0_16_605">
<rect width="30" height="30" fill="white"/>
</clipPath>
</defs>
</svg>
