<svg width="30" height="30" viewBox="0 0 30 30" fill="none" xmlns="http://www.w3.org/2000/svg">
<path d="M21.3575 12.4213C21.3575 12.4213 20.6013 12.2336 20.908 11.5571L22.7846 8.43868L21.2637 7.01493L20.9595 6.73023L17.9863 8.68452C17.5933 8.86006 17.1375 8.63593 17.0365 8.21764L16.2503 4.96106H14.167H13.7503L12.9666 8.20514C12.867 8.61739 12.4207 8.86339 12.0322 8.69331C12.026 8.69068 12.0199 8.68785 12.0137 8.68506L9.04046 6.73073L8.73629 7.01543L7.21538 8.43918L9.09192 11.5576C9.39875 12.2341 8.64254 12.4219 8.64254 12.4219L5.11063 13.2999L5.17933 15.3821L5.19308 15.7986L8.67733 16.519C9.074 16.6707 9.23988 17.1421 9.02558 17.5088L9.01192 17.5322L7.13538 20.6506L8.65629 22.0743L8.96046 22.359L11.9337 20.4048C11.9399 20.4019 11.9462 20.3994 11.9522 20.3964C11.9522 20.3964 11.957 20.3947 11.966 20.3918C12.4496 20.2348 12.9631 20.5361 13.0825 21.0304L13.8303 24.1277H14.2469H16.3303L17.1165 20.8711C17.2175 20.4528 17.6733 20.2287 18.0663 20.4042L21.0395 22.3585L21.3436 22.0738L22.8645 20.6501L20.988 17.5317L20.9743 17.5083C20.76 17.1416 20.9259 16.6703 21.3226 16.5185L24.8068 15.7981L24.8206 15.3816L24.8893 13.2994L21.3575 12.4213ZM15 18.711C12.6988 18.711 10.8333 16.8455 10.8333 14.5444C10.8333 12.2432 12.6988 10.3777 15 10.3777C17.3012 10.3777 19.1667 12.2432 19.1667 14.5444C19.1667 16.8455 17.3012 18.711 15 18.711Z" fill="#D0CFCE"/>
<path d="M15 10.3777C12.6988 10.3777 10.8333 12.2432 10.8333 14.5444C10.8333 16.8455 12.6988 18.711 15 18.711C17.3012 18.711 19.1667 16.8455 19.1667 14.5444C19.1667 12.2432 17.3012 10.3777 15 10.3777ZM15 16.6277C13.8494 16.6277 12.9167 15.6949 12.9167 14.5444C12.9167 13.3937 13.8494 12.461 15 12.461C16.1506 12.461 17.0833 13.3937 17.0833 14.5444C17.0833 15.6949 16.1506 16.6277 15 16.6277Z" fill="#9B9B9A"/>
<path d="M15 16.6277C16.1506 16.6277 17.0833 15.6949 17.0833 14.5443C17.0833 13.3937 16.1506 12.461 15 12.461C13.8494 12.461 12.9167 13.3937 12.9167 14.5443C12.9167 15.6949 13.8494 16.6277 15 16.6277Z" stroke="black" stroke-miterlimit="10" stroke-linecap="round" stroke-linejoin="round"/>
<path d="M15 18.711C17.3012 18.711 19.1667 16.8455 19.1667 14.5444C19.1667 12.2432 17.3012 10.3777 15 10.3777C12.6988 10.3777 10.8333 12.2432 10.8333 14.5444C10.8333 16.8455 12.6988 18.711 15 18.711Z" stroke="black" stroke-miterlimit="10" stroke-linecap="round" stroke-linejoin="round"/>
<path d="M12.9663 8.20504C12.8667 8.61733 12.4205 8.86333 12.0319 8.69325C12.0258 8.69054 12.0196 8.68779 12.0134 8.68496L9.04017 6.73067L8.736 7.01542L7.21508 8.43917L9.09162 11.5575C9.39842 12.2341 8.64225 12.4218 8.64225 12.4218L5.11033 13.2999L5.17904 15.3821L5.19279 15.7986L8.67704 16.519C9.07375 16.6707 9.23958 17.1421 9.02533 17.5088L9.01167 17.5322L7.13512 20.6505L8.65604 22.0743L8.96021 22.359L11.9334 20.4048C11.9396 20.4019 11.9459 20.3994 11.952 20.3965C11.952 20.3965 11.9568 20.3947 11.9658 20.3918C12.4494 20.2348 12.9629 20.5361 13.0822 21.0303L13.83 24.1276H14.2467H16.33L17.1162 20.8711C17.2172 20.4527 17.673 20.2287 18.066 20.4042L21.0392 22.3585L21.3433 22.0738L22.8642 20.65L20.9877 17.5317L20.974 17.5082C20.7597 17.1415 20.9256 16.6702 21.3223 16.5185L24.8066 15.798L24.8203 15.3815L24.889 13.2993L21.3571 12.4212C21.3571 12.4212 20.6009 12.2335 20.9077 11.5569L22.7843 8.43858L21.2634 7.01483L20.9592 6.73008L17.986 8.68437C17.5931 8.85987 17.1372 8.63579 17.0362 8.21746L16.25 4.961H14.1667H13.75L12.9663 8.20504Z" stroke="black" stroke-miterlimit="10" stroke-linecap="round" stroke-linejoin="round"/>
</svg>
