<?xml version="1.0" encoding="utf-8"?>
<!-- Generator: Adobe Illustrator 25.4.1, SVG Export Plug-In . SVG Version: 6.00 Build 0)  -->
<svg version="1.1" id="Layer_1" xmlns="http://www.w3.org/2000/svg" xmlns:xlink="http://www.w3.org/1999/xlink" x="0px" y="0px"
	 viewBox="0 0 800 800" style="enable-background:new 0 0 800 800;" xml:space="preserve">
<style type="text/css">
	.st0{fill:#ffffff;}
</style>
<g>
	<g>
		<path class="st0" d="M656.7,394.3c-25.6-102.9-108.6-156.8-187.6-172c-44.7-8.6-111.3-14.7-130.5-10.4
			c62.6,25.9,98.6,93,110.5,115.3c13.5,25.1,21.8,51.8,22.5,65.6c0,0,1.6,14.8-17.2,16.2c-17.1,1.3-36-14.2-38-15.7
			c-2-1.5-21.7-14.5-46.4-67c-27.9-59.4-67.5-87.8-67.5-87.8C206.3,169.6,80,247.6,80,247.6c88.2,37.9,120.8,123.5,136.4,176.5
			c16.3,55.6,37.6,86.5,37.6,86.5c22,34,53.3,62.2,90.4,82c18.7,10.5,39.5,18.5,61.7,23.3c16,3.5,32.7,5.3,49.9,5.3
			c113,0,204.9-79.5,207-178.2C662.7,426.2,660.5,410,656.7,394.3z"/>
	</g>
</g>
</svg>
